<?xml version="1.0" encoding="UTF-8"?>
<svg id="Capa_1" xmlns="http://www.w3.org/2000/svg" version="1.1" viewBox="0 0 1920 800">
  <!-- Generator: Adobe Illustrator 30.1.0, SVG Export Plug-In . SVG Version: 2.1.1 Build 136)  -->
  <defs>
    <style>
      .st0 {
        fill-rule: evenodd;
      }

      .st0, .st1 {
        fill: #215878;
      }
    </style>
  </defs>
  <g>
    <circle class="st1" cx="381.91" cy="262.48" r="6.97"/>
    <circle class="st1" cx="450.74" cy="267.91" r="6.97"/>
    <circle class="st1" cx="512.75" cy="277.58" r="6.97"/>
    <circle class="st1" cx="606.69" cy="331.09" r="6.97"/>
    <circle class="st1" cx="564.4" cy="295.43" r="6.97"/>
    <circle class="st1" cx="524.25" cy="602.18" r="6.97"/>
    <circle class="st1" cx="542.08" cy="547.5" r="6.97"/>
    <circle class="st1" cx="561.02" cy="492.7" r="6.97"/>
    <circle class="st1" cx="631.79" cy="414.07" r="6.97"/>
    <circle class="st1" cx="595.81" cy="460.76" r="6.97"/>
    <circle class="st1" cx="397.3" cy="521.93" r="6.97"/>
    <circle class="st1" cx="432.91" cy="483.9" r="6.97"/>
    <circle class="st1" cx="423.05" cy="510.41" r="6.97"/>
    <path class="st1" d="M729.55,278.53l-19.16-6.24c-.03-1.29-.07-2.58-.15-3.87l18.65-7.64c1.97-.81,3.14-2.85,2.84-4.96-1.29-9.07-3.55-18.03-6.7-26.63-.74-2-2.81-3.23-4.84-3.02l-20.03,2.09c-.55-1.17-1.12-2.33-1.71-3.48l13.93-14.56c1.47-1.54,1.71-3.88.58-5.69-4.88-7.77-10.58-15.04-16.95-21.6-1.48-1.53-3.82-1.85-5.66-.79l-17.46,10.06c-.98-.84-1.97-1.67-2.97-2.48l6.8-18.97c.72-2-.02-4.24-1.78-5.43-7.6-5.11-15.77-9.42-24.27-12.84-1.99-.8-4.24-.15-5.49,1.58l-11.85,16.29c-1.23-.37-2.47-.73-3.72-1.06l-1.5-20.09c-.16-2.12-1.74-3.87-3.84-4.23-9.03-1.57-18.24-2.18-27.39-1.86-2.13.08-3.93,1.59-4.37,3.68l-4.2,19.7c-1.28.16-2.56.34-3.83.55l-9.54-17.74c-1.01-1.87-3.17-2.82-5.23-2.31-8.89,2.24-17.56,5.42-25.78,9.44-1.91.94-2.94,3.06-2.5,5.14l4.18,19.71c-1.1.67-2.2,1.35-3.27,2.06l-15.93-12.33c-1.68-1.3-4.04-1.29-5.72.02-7.21,5.66-13.84,12.09-19.71,19.11-1.37,1.63-1.44,3.99-.2,5.71l4.8,6.62c-9.23-3.93-18.41-7.11-27.45-9.66-.74-.47-1.59-.65-2.45-.66-54.57-14.77-103.55-6.77-125.88-1.39-9.14-13.56-24.2-20.8-41.02-19.37-16.79,1.43-30.8,11.08-35.69,24.6-.45,1.25-.87,2.72-1.2,4.35-21.24-16.44-40.99-13.46-51.39-9.87-19.55,6.76-34.63,24.96-37.53,45.3-.03.22-.04.44-.07.67-11.12-2.49-20.19,3.27-24.44,10.78-3.07,5.44-4.08,12.58-1.38,19.19-10.27-.24-20.91,3.46-30.07,10.84-13.61,10.96-20.79,27.2-18.3,41.36.3,1.73.78,3.57,1.48,5.47-15.45.34-28.24,6.98-35.11,18.7-7,11.94-6.46,26.59,1.39,37.32,1.4,1.92,3.04,3.61,4.8,5.16-11.03,7.17-16.53,18.71-14.13,31.14,2.18,11.32,11.39,22.73,27.35,25.37-4.57,12.68-.86,26.64,10.34,37.11,9.92,9.27,25.9,15.23,40.96,9.85-2.62,23.38,8.08,40.87,29.77,47.68,5.97,1.87,12.43,2.8,19.11,2.8,16.49,0,34.21-5.67,48.71-16.59,3.61,6.49,10.06,11.07,18.52,12.91,7.09,1.54,14.32.85,20.05-1.61v36.27c-4.33,4.01-6.85,10.34-6.85,17.46,0,7.17,2.6,13.55,7.05,17.6.14,11.09,0,28.18-.1,40.87-.05,6.34-.1,11.72-.1,15.02,0,2.57,2.08,4.65,4.65,4.65s4.65-2.08,4.65-4.65c0-3.28.05-8.64.1-14.95.11-13.61.27-32.26.07-43.3-.03-1.52-.79-2.92-2.05-3.77-3.06-2.06-4.96-6.46-4.97-11.49,0-4.93,1.88-9.39,4.8-11.37,1.28-.86,2.04-2.31,2.04-3.85v-47.55c0-2-1.28-3.77-3.16-4.41-1.87-.64-3.98,0-5.18,1.59-3.12,4.1-11.48,6.04-19.03,4.4-3.93-.85-10.46-3.31-13.17-10.1,7.58-7.33,13.86-16.35,17.93-27.06.91-2.4-.3-5.09-2.69-6-2.39-.9-5.08.3-6,2.69-13.06,34.35-53.86,50.27-81.59,41.56-19.64-6.17-27.58-23-21.78-46.2.48-1.89-.28-3.88-1.89-4.97-1.61-1.09-3.74-1.07-5.32.07-13.07,9.35-28.94,4.29-38.18-4.34-7.78-7.28-13.34-19.49-5.62-31.96.89-1.43.93-3.24.11-4.71-.82-1.48-2.37-2.39-4.06-2.39-15.06,0-23.58-9.24-25.34-18.39-1.51-7.84,1.51-17.95,13.86-23.69,5.6,2.48,12.13,3.75,19.37,3.75,5.14,0,10.64-.64,16.41-1.94,2.5-.57,4.07-3.06,3.51-5.56-.57-2.51-3.06-4.07-5.56-3.51-18.11,4.09-32.66.79-39.88-9.08-5.66-7.74-6.01-18.39-.88-27.13,6.01-10.24,17.86-15.22,32.62-13.93,4.29,5.1,10.94,9.93,21.15,13.42.49.17,1,.25,1.5.25,1.93,0,3.74-1.22,4.4-3.15.83-2.43-.47-5.07-2.9-5.9-12.73-4.35-20.33-11.67-22-21.18-1.89-10.71,4.13-23.78,14.97-32.51,10.7-8.61,23.63-11.07,34.58-6.58,2.19.91,4.76-.02,5.88-2.14,1.11-2.12.43-4.75-1.58-6.05-7.73-5.03-8.16-12.63-5.17-17.92,2.74-4.86,8.62-8.19,16.04-5.77,1.04,15.38,9.43,29.51,23.99,39.82.82.58,1.76.85,2.68.85,1.46,0,2.89-.68,3.8-1.96,1.48-2.1.99-5-1.11-6.48-15.03-10.63-22.05-25.25-19.78-41.17,2.42-16.97,15.02-32.17,31.36-37.82,16.26-5.61,33.34-.96,48.15,13.11,1.38,8.72,6.25,19.58,18.58,31.76.91.9,2.09,1.34,3.27,1.34s2.4-.46,3.31-1.38c1.81-1.83,1.79-4.77-.04-6.57-13.71-13.55-19.02-27.18-14.97-38.37,3.61-9.96,14.75-17.4,27.73-18.5,14.02-1.21,26.44,5.09,33.55,16.78v463.61c0,2.54,2.03,4.61,4.58,4.65,3.24.05,6.46.08,9.68.08,32.46,0,63.9-2.65,93.51-7.61.28,0,.57-.03.86-.09.13-.03.24-.08.37-.11,90.43-15.37,163.52-52.46,195.45-102.42,25.23-.16,38.03-16.92,38.03-49.85,0-24.09-7.84-38.91-23.27-44.33-1.55-22.15-4.82-47.45-11.19-73.62l2.84,3.35c.9,1.07,2.22,1.64,3.55,1.64.69,0,1.39-.15,2.05-.47,8.23-4.03,16.05-8.94,23.25-14.6,1.68-1.31,2.24-3.6,1.38-5.55l-8.18-18.41c.94-.88,1.87-1.78,2.78-2.69l18.15,8.75c1.92.92,4.21.43,5.59-1.21,5.87-7.02,11.02-14.69,15.3-22.79,1-1.88.59-4.2-.99-5.63l-14.96-13.49c.5-1.18.98-2.38,1.44-3.59l20.14.61c2.32.09,4.03-1.33,4.61-3.38,2.51-8.82,4.09-17.92,4.71-27.04.14-2.12-1.18-4.08-3.2-4.74ZM518.87,477.14c10.3,19.33,4.69,42.01.43,53.8-7.27,20.12-21.07,38.2-32.79,42.99-.43.17-.8.42-1.15.71-20.71,1.94-40.69,2.18-57.57.11,6.01-10.5,9.3-22.77,9.66-36.5,14.67-10.41,23.01-25.69,23.01-43.51,0-51.85-41-126.33-108.06-133.67v-66.3c101.22-9.84,223.01,26.18,270.14,79.92-17.32,39.31-66.92,90.05-100.33,95.69-1.48.25-2.74,1.19-3.4,2.53-.66,1.34-.64,2.92.07,4.24ZM414.48,539.28c-24.4,7.78-50.72,2.64-62.1-11.87v-24.44c27.4-1.91,58.88-20.42,67.3-50.34,2.33-8.31.69-16.5-4.76-23.69-10.52-13.89-35.27-23.45-62.54-24.43v-34.1c61.32,7.38,98.77,76.29,98.77,124.33,0,20.57-13.71,37.22-36.67,44.55ZM393.88,552.06c-2.29,9.15-13,12.13-41.49,12.4v-24.02c10.41,8.12,24.51,11.73,38.73,11.73.92,0,1.84-.08,2.76-.11ZM352.39,493.67v-79.87c24.15.95,46.39,9.22,55.13,20.75,3.73,4.92,4.78,10.01,3.21,15.56-7.12,25.33-34.83,41.62-58.35,43.56ZM352.39,573.77c27.7-.22,48.73-2.83,51.05-22.51,4.78-.68,9.46-1.71,13.87-3.12,3.75-1.19,7.26-2.63,10.57-4.24-1.8,18.87-9.96,33.8-24.35,44.44-13.08,9.68-31.12,15.25-51.15,16.01v-30.58ZM624.38,314.95c14.13-7.62,23.49-21.82,24.59-38,.84-12.49-3.22-24.57-11.45-34-8.24-9.43-19.65-15.1-32.15-15.94-14.29-.99-27.96,4.62-37.54,15-5.64-4.97-11.33-9.56-17.08-13.75,14.14-16.17,34.97-24.84,56.52-23.4,18.35,1.25,35.12,9.56,47.21,23.42,12.09,13.86,18.07,31.59,16.82,49.94-1.65,24.38-15.89,45.73-37.48,56.71-2.85-6.73-6.05-13.37-9.45-19.96ZM586.21,259.9c-3.81-4.1-7.67-7.91-11.56-11.6,7.69-8.3,18.68-12.75,30.09-12.01,10.01.68,19.17,5.22,25.77,12.78,6.6,7.56,9.86,17.24,9.18,27.26-.88,12.96-8.36,24.33-19.66,30.45-9.25-16.54-20.37-32.39-33.81-46.87ZM579.4,266.22c22.3,24.01,38.03,52,49.18,80.67.58,5.25-.32,11.36-2.37,17.99-29.17-30.82-80.14-55.35-137.57-69.06,5.49-21.67,6.67-64.92-3.7-91.13,31.54,10.45,64.44,29.22,94.46,61.54ZM472.76,201.01c13.5,21.75,12.58,70.69,6.85,92.74-41.39-8.96-85.64-12.28-127.22-8.33v-85.71c21.28-5.11,68.12-12.76,120.37,1.3ZM352.39,656.48v-42.84c22.02-.78,42.02-6.99,56.68-17.83,4.97-3.68,9.27-7.88,12.97-12.51,8.96,1.35,19.12,2.01,30.14,2.01s22.42-.61,34.32-1.74c4.21,6.62,4.81,18.31,1.26,29.79-5.7,18.42-19.9,31.74-37.99,35.63-.32.07-.58.25-.87.38-29.41,4.84-61.63,7.45-96.5,7.1ZM479.92,643.25c7.59-7.18,13.39-16.41,16.71-27.13,3.85-12.43,3.61-24.66-.23-33.6,47.71-5.59,98.27-19.01,123.19-35.03,4.04,3.56,9.64,6.11,17.31,7.3-25.15,35.61-79.17,70.24-156.97,88.47ZM658.56,469.94c-24.03,5.32-26.37,25.88-26.37,45.36,0,10.83.04,21.2,2.94,29.74-16.97-4.08-17.04-18.17-17.04-39.32,0-25.35,4.35-37.41,29.09-37.41,3.62,0,7.57.36,11.37,1.63ZM647.19,546.29c-.46,0-.85-.04-1.29-.04-4.34-7.15-4.4-18.23-4.4-30.95,0-24.54,4.32-36.59,27.99-37.34,4.05,5.57,6.78,14.22,6.78,27.76,0,35.96-15.54,40.57-29.08,40.57ZM647.19,459.01c-35.42,0-38.38,24.11-38.38,46.71,0,12.4.02,25,4.98,34.43-21.44,13.41-65.38,26.12-109.41,32.24,9.42-9.3,18.18-23.16,23.65-38.3,7.4-20.48,7.9-40.09,1.54-55.94,37.22-11.11,93.25-68.9,105.87-111.91,10.38,32.71,15.26,65.29,17.36,93.07-1.81-.19-3.67-.31-5.62-.31ZM720.03,304.28l-19.82-.6c-2.15-.14-3.87,1.21-4.54,3.13-1.07,3.11-2.31,6.17-3.66,9.12-.85,1.85-.4,4.03,1.11,5.4l14.73,13.28c-3.02,5.32-6.44,10.41-10.21,15.21l-17.86-8.61c-1.83-.88-4.03-.47-5.42,1.01-2.24,2.4-4.61,4.7-7.05,6.84-1.53,1.34-2.01,3.52-1.18,5.38l8.05,18.12c-4.91,3.63-10.11,6.89-15.51,9.74l-12.82-15.13c-.16-.19-.37-.28-.55-.44-2.37-7.73-5.04-15.46-8.03-23.16,24.94-12.34,41.43-36.78,43.33-64.74,1.41-20.83-5.37-40.96-19.1-56.69-13.73-15.73-32.76-25.17-53.59-26.58-24.87-1.7-48.76,8.48-64.79,27.33-6.79-4.56-13.62-8.6-20.45-12.22-.15-.42-.28-.84-.56-1.22l-11.65-16.05c4.05-4.57,8.46-8.84,13.16-12.75l15.69,12.14c1.62,1.25,3.84,1.3,5.51.13,2.66-1.86,5.46-3.62,8.31-5.22,1.78-1,2.7-3.03,2.27-5.02l-4.11-19.4c5.56-2.52,11.32-4.63,17.2-6.3l9.39,17.47c.96,1.79,2.98,2.76,4.98,2.36,3.22-.62,6.49-1.09,9.72-1.39,2.02-.19,3.7-1.67,4.12-3.66l4.14-19.39c6.09-.05,12.23.37,18.28,1.24l1.48,19.78c.15,2.03,1.6,3.72,3.59,4.18,3.16.74,6.35,1.64,9.45,2.69,1.93.65,4.06-.02,5.25-1.67l11.67-16.03c5.6,2.44,11.02,5.31,16.19,8.57l-6.7,18.67c-.69,1.91-.05,4.05,1.58,5.28,2.59,1.96,5.13,4.07,7.54,6.3,1.5,1.38,3.72,1.63,5.47.61l17.18-9.9c4.12,4.5,7.9,9.33,11.31,14.41l-13.71,14.33c-1.41,1.47-1.69,3.69-.71,5.47,1.59,2.86,3.04,5.83,4.32,8.81.8,1.87,2.76,2.98,4.75,2.79l19.73-2.06c1.93,5.8,3.43,11.75,4.47,17.77l-18.35,7.52c-1.88.77-3.05,2.68-2.87,4.7.28,3.25.4,6.55.36,9.82-.02,2.03,1.28,3.85,3.21,4.47l18.86,6.14c-.59,6.07-1.65,12.12-3.15,18.05Z"/>
    <path class="st1" d="M542.5,427.35s.05-.09.09-.13c9.95-10,16.11-23.78,16.11-38.97s-6.16-28.96-16.11-38.97c-.04-.04-.05-.1-.09-.14-.04-.04-.1-.05-.14-.09-10-9.95-23.78-16.11-38.97-16.11s-28.96,6.16-38.97,16.11c-.04.04-.1.05-.14.09-.04.04-.05.09-.09.14-9.95,10-16.11,23.78-16.11,38.97s6.16,28.97,16.11,38.97c.04.04.05.09.09.13s.09.05.13.09c10,9.95,23.78,16.11,38.97,16.11s28.97-6.16,38.97-16.11c.04-.04.09-.05.13-.09ZM457.64,392.9h19.62c.69,3.87,2.2,7.45,4.37,10.55l-13.86,13.86c-5.55-6.8-9.21-15.2-10.14-24.41ZM467.78,359.2l13.86,13.86c-2.17,3.1-3.68,6.68-4.37,10.55h-19.62c.93-9.2,4.59-17.61,10.14-24.4ZM549.17,383.6h-19.62c-.69-3.87-2.2-7.45-4.37-10.55l13.86-13.86c5.55,6.8,9.21,15.2,10.14,24.4ZM503.4,405.53c-9.53,0-17.28-7.75-17.28-17.28s7.75-17.28,17.28-17.28c4.72,0,9,1.91,12.12,4.99.03.03.04.07.07.1.03.03.07.04.1.07,3.08,3.12,4.99,7.4,4.99,12.12,0,9.53-7.75,17.28-17.28,17.28ZM518.6,366.48c-3.1-2.17-6.68-3.68-10.55-4.37v-19.62c9.2.93,17.61,4.58,24.4,10.14l-13.86,13.86ZM498.75,362.11c-3.87.69-7.45,2.2-10.55,4.37l-13.86-13.86c6.8-5.55,15.2-9.21,24.4-10.14v19.62ZM488.21,410.02c3.1,2.17,6.68,3.68,10.55,4.37v19.62c-9.2-.93-17.61-4.59-24.4-10.14l13.86-13.86ZM508.05,414.39c3.87-.69,7.45-2.2,10.55-4.37l13.86,13.86c-6.8,5.55-15.2,9.21-24.4,10.14v-19.62ZM525.17,403.45c2.17-3.1,3.68-6.68,4.37-10.55h19.62c-.93,9.2-4.59,17.61-10.14,24.41l-13.86-13.86Z"/>
    <path class="st1" d="M385.66,427.16c-2.01-1.6-4.93-1.26-6.53.74-1.59,2.01-1.26,4.93.75,6.53,1.96,1.56,5.92,7.44,7.59,11.84.7,1.86,2.47,3.01,4.35,3.01.55,0,1.1-.1,1.65-.3,2.4-.91,3.61-3.59,2.7-5.99-1.96-5.17-6.64-12.76-10.5-15.83Z"/>
    <path class="st1" d="M151.5,404.67c-2.42-.85-5.08.43-5.92,2.85-5.23,14.94.11,24.86,6.86,29.17,3.28,2.09,7,3.11,10.84,3.11,6.46,0,13.26-2.88,18.89-8.38,1.84-1.79,1.87-4.74.08-6.57-1.79-1.83-4.74-1.87-6.57-.08-6.7,6.53-14.16,6.68-18.24,4.08-4.85-3.09-6.01-9.92-3.09-18.25.85-2.42-.43-5.08-2.85-5.92Z"/>
    <path class="st1" d="M297.49,354.18c-2.44-.78-5.06.54-5.86,2.98s.54,5.06,2.99,5.86c8.03,2.61,14.51,9.13,17.79,17.88,3.37,9.02,2.76,18.78-1.65,26.1-11.14,18.53-32.16,22.46-47.16,16.75-12.17-4.63-18.12-14.36-15.93-26.03.35-1.82-.43-3.66-1.96-4.7-1.53-1.04-3.53-1.08-5.09-.09-7.89,5-15.48,1.46-19.55-3.08-4.81-5.36-7.66-15.09.13-24.9,1.6-2.01,1.26-4.93-.75-6.53-2.02-1.6-4.94-1.26-6.53.75-10.66,13.43-7.57,28.2.23,36.89,6.45,7.18,15.36,9.99,23.84,7.97.69,12.6,8.86,23.3,22.3,28.42,5.17,1.97,10.9,3.01,16.79,3.01,15.33,0,31.69-7.11,41.64-23.66,5.85-9.73,6.74-22.49,2.38-34.14-4.27-11.43-12.88-19.98-23.63-23.47Z"/>
    <path class="st1" d="M288.73,269.37c1.98,1.64,4.91,1.36,6.55-.62,1.63-1.98,1.36-4.91-.62-6.55-18.01-14.9-33.69-10.66-42.38-1.74-9.64,9.9-11.13,25.22-3.32,34.16.92,1.05,2.21,1.59,3.5,1.59,1.09,0,2.18-.38,3.06-1.15,1.93-1.69,2.13-4.63.44-6.56-4.62-5.28-3.25-15.15,2.98-21.56,3.6-3.71,13.74-10.87,29.8,2.42Z"/>
  </g>
  <g>
    <path class="st1" d="M831.38,500.33c-.98-.98-1.47-3.06-1.47-6.25,0-2.94.49-4.41,1.47-4.41,1.96,0,4.66-.37,8.09-1.1,3.43-.74,6.62-1.71,9.56-2.94,2.94-1.22,4.53-2.33,4.78-3.31.98-3.43,1.65-7.36,2.02-11.77.36-4.41.55-9.07.55-13.98v-69.52c0-9.32-1.72-15.94-5.15-19.86-2.45-2.94-5.34-4.9-8.64-5.89-3.31-.98-6.26-1.53-8.83-1.65-2.58-.12-3.86-.43-3.86-.92,0-5.89.74-8.95,2.21-9.2,13-1.96,23.23-3.68,30.71-5.15s13.18-2.7,17.11-3.68l4.78-1.1c.98-.24,1.59.68,1.84,2.76.24,2.09.24,3.74,0,4.96-.49,3.44-.86,6.38-1.1,8.83-.25,2.45-.37,4.41-.37,5.89,0,.98.24,1.47.74,1.47.24,0,.61-.24,1.1-.74,5.64-5.89,13.3-11.46,22.99-16.74,9.69-5.27,18.95-7.91,27.77-7.91,9.81,0,17.96,2.64,24.46,7.91,6.5,5.28,10.97,11.34,13.43,18.21,18.63-17.41,37.64-26.12,57.02-26.12,30.9,0,46.35,23.54,46.35,70.63v40.83c0,7.12.24,13.37.74,18.76.49,5.4,1.22,10.06,2.21,13.98.49.98,2.21,2.09,5.15,3.31,2.94,1.23,6.13,2.21,9.56,2.94,3.43.74,5.89,1.1,7.36,1.1.74,0,1.22,1.47,1.47,4.41.24,2.94.12,5.03-.37,6.25l-39.36-1.84-40.1,1.84c-.98-.98-1.47-3.06-1.47-6.25,0-2.94.49-4.41,1.47-4.41,1.96,0,4.66-.37,8.09-1.1,3.43-.74,6.62-1.71,9.56-2.94,2.94-1.22,4.53-2.33,4.78-3.31.98-3.43,1.65-7.17,2.02-11.22.36-4.05.55-8.15.55-12.32v-41.57c0-37.76-12.39-56.65-37.15-56.65-5.89,0-11.4,1.29-16.55,3.86s-9.26,5.46-12.32,8.64c-3.07,3.19-4.6,6.01-4.6,8.46.74,4.66,1.22,9.38,1.47,14.16.24,4.78.37,9.99.37,15.63v41.57c0,6.13.24,11.59.74,16.37.49,4.78,1.22,9.14,2.21,13.06.49.98,2.21,2.09,5.15,3.31,2.94,1.23,6.13,2.21,9.56,2.94,3.43.74,5.89,1.1,7.36,1.1.74,0,1.22,1.47,1.47,4.41.24,2.94.12,5.03-.37,6.25l-39.36-1.84-40.1,1.84c-.98-.98-1.47-3.06-1.47-6.25,0-2.94.49-4.41,1.47-4.41,1.96,0,4.66-.37,8.09-1.1,3.43-.74,6.62-1.71,9.56-2.94,2.94-1.22,4.53-2.33,4.78-3.31.98-3.43,1.65-7.36,2.02-11.77.36-4.41.55-9.07.55-13.98v-37.52c0-38.99-11.77-58.49-35.31-58.49-4.91,0-9.93,1.29-15.08,3.86-5.15,2.57-9.51,5.76-13.06,9.56-3.55,3.81-5.33,7.42-5.33,10.85v64.74c0,7.12.24,13.37.74,18.76.49,5.4,1.22,10.06,2.21,13.98.49.98,2.21,2.09,5.15,3.31,2.94,1.23,6.13,2.21,9.56,2.94,3.43.74,5.89,1.1,7.36,1.1.74,0,1.22,1.47,1.47,4.41.24,2.94.12,5.03-.37,6.25l-39.36-1.84-40.1,1.84Z"/>
    <path class="st1" d="M1167.59,501.81c-11.28,0-20.6-3-27.96-9.01-7.36-6.01-11.04-15.02-11.04-27.04,0-14.71,9.56-26.97,28.69-36.79,8.33-4.17,16.61-7.48,24.83-9.93,8.22-2.45,16.49-5.27,24.83-8.46,2.21-.74,3.31-2.57,3.31-5.52v-27.59c0-7.85-2.45-13.91-7.36-18.21-4.91-4.29-10.79-6.44-17.66-6.44-7.36,0-13.49,2.52-18.39,7.54-4.91,5.03-7.36,11.59-7.36,19.68,0,8.59-5.03,12.87-15.08,12.87-7.12,0-11.9-2.33-14.35-6.99,0-5.15,2.15-10.48,6.44-16s9.87-10.61,16.74-15.27c6.86-4.66,14.41-8.46,22.62-11.4,8.21-2.94,16.37-4.41,24.46-4.41,13.48,0,23.17,3.25,29.06,9.75,5.89,6.5,8.83,16.98,8.83,31.45v84.97c0,5.15,1.34,9.44,4.05,12.87,2.7,3.44,6.37,5.15,11.04,5.15,3.18,0,7.48-1.71,12.87-5.15.98,0,1.47.98,1.47,2.94,0,3.19-.62,5.76-1.84,7.72-10.06,8.59-18.64,12.87-25.75,12.87-5.64,0-11.04-2.33-16.19-6.99-5.15-4.66-8.71-9.56-10.67-14.71-1.23.98-2.76,2.27-4.6,3.86-1.84,1.6-3.37,2.88-4.6,3.86-5.15,3.93-10.73,7.3-16.74,10.12-6.01,2.82-12.57,4.23-19.68,4.23ZM1181.57,480.84c6.86,0,13.36-1.96,19.5-5.89,6.13-3.92,9.2-8.09,9.2-12.51v-37.89c-6.38,2.45-12.45,4.66-18.21,6.62-5.76,1.97-10.36,3.56-13.8,4.78-4.41,1.72-8.65,4.78-12.69,9.2-4.05,4.41-6.07,9.44-6.07,15.08,0,7.36,2.27,12.63,6.81,15.82,4.53,3.19,9.62,4.78,15.26,4.78Z"/>
    <path class="st1" d="M1398.24,501.44c-1.47,0-2.21-2.09-2.21-6.25v-4.41c0-1.22-.49-1.71-1.47-1.47-13.49,7.6-26.49,11.4-38.99,11.4-13.49,0-25.69-3.37-36.6-10.11-10.91-6.74-19.5-15.69-25.75-26.85-6.26-11.16-9.38-23.36-9.38-36.6,0-11.77,2.27-23.05,6.8-33.84,4.54-10.79,10.67-20.41,18.39-28.87,7.73-8.46,16.49-15.08,26.3-19.86,9.81-4.78,19.98-7.17,30.53-7.17s19.74,2.09,27.59,6.25c1.71,0,2.57-2.21,2.57-6.62v-39.73c0-8.33-.74-16.19-2.21-23.54-.98-3.92-7.24-5.89-18.76-5.89h-3.31c-1.47,0-2.21-1.34-2.21-4.05,0-3.92.74-5.89,2.21-5.89,13.73-1.22,24.58-3.06,32.56-5.52,7.97-2.45,13.67-4.9,17.1-7.36l1.47-1.1h.74c.98,0,1.96.68,2.94,2.02.98,1.35,1.59,2.64,1.84,3.86-2.7,8.09-4.05,18.76-4.05,32v165.53c0,11.53.74,20.85,2.21,27.96.74,2.45,2.88,3.99,6.44,4.6,3.55.62,7.29,1.17,11.22,1.65l3.31.37c.74.25,1.1,1.72,1.1,4.41,0,3.68-.74,5.52-2.21,5.52-8.09.49-16.43,1.78-25.01,3.86-8.59,2.09-15.21,3.73-19.86,4.96l-3.31.74ZM1369.54,482.68c8.33,0,14.83-1.9,19.5-5.7,4.66-3.8,6.99-8.89,6.99-15.27v-87.55c0-5.15-2.76-9.99-8.28-14.53-5.51-4.53-14.41-6.81-26.67-6.81-9.32,0-17.42,2.94-24.28,8.83-6.87,5.89-12.14,13.68-15.82,23.36-3.68,9.69-5.52,20.17-5.52,31.45s2.15,22.69,6.44,32.74c4.29,10.06,10.48,18.15,18.58,24.28,8.09,6.13,17.78,9.2,29.06,9.2Z"/>
  </g>
  <path class="st0" d="M1429.3,161.59c0,15.13-27.39,50.75-27.39,50.75,0,0-27.39-35.62-27.39-50.75s12.26-27.39,27.39-27.39,27.39,12.26,27.39,27.39Z"/>
  <path class="st0" d="M1309.73,234.2c12.1,0,40.6,21.91,40.6,21.91,0,0-28.49,21.91-40.6,21.91-12.1,0-21.91-9.81-21.91-21.91,0-12.1,9.81-21.91,21.91-21.91Z"/>
  <path class="st0" d="M1494.09,278.02c-12.1,0-40.6-21.91-40.6-21.91,0,0,28.49-21.91,40.6-21.91,12.1,0,21.91,9.81,21.91,21.91,0,12.1-9.81,21.91-21.91,21.91Z"/>
  <path class="st0" d="M1351.42,174.63c8.56,8.56,13.21,44.2,13.21,44.2,0,0-35.64-4.66-44.2-13.21-8.56-8.56-8.56-22.43,0-30.99,8.56-8.56,22.43-8.56,30.99,0Z"/>
  <path class="st0" d="M1483.39,205.62c-8.56,8.56-44.2,13.21-44.2,13.21,0,0,4.66-35.64,13.21-44.2,8.56-8.56,22.43-8.56,30.99,0,8.56,8.56,8.56,22.43,0,30.99Z"/>
  <g>
    <path class="st1" d="M1485.36,500.7c-.98-.98-1.47-2.82-1.47-5.52,0-5.15.24-7.72.74-7.72,1.96,0,4.9-.61,8.83-1.84,3.92-1.22,7.78-2.76,11.59-4.6s6.19-3.62,7.17-5.34c1.96-2.94,4.05-6.56,6.25-10.85,2.21-4.29,3.8-7.78,4.78-10.49l1.84-4.41,81.3-186.87c2.7-6.37,7.23-9.56,13.61-9.56,3.68,0,6.62,1.6,8.83,4.78l75.41,186.5c2.21,5.64,4.35,10.98,6.44,16,2.08,5.03,3.98,9.75,5.7,14.16.98,2.45,3.18,4.6,6.62,6.44,3.43,1.84,7.17,3.25,11.22,4.23,4.04.98,7.17,1.47,9.38,1.47.98,0,1.47,2.09,1.47,6.25,0,3.93-.25,6.37-.74,7.36l-22.44-1.47c-7.12-.49-13.24-.92-18.39-1.29-5.15-.36-9.32-.42-12.51-.18l-55.55,2.94c-.98-.98-1.47-3.55-1.47-7.72,0-3.92.49-5.89,1.47-5.89,5.39,0,10.91-1.16,16.55-3.49,5.64-2.33,8.46-5.46,8.46-9.38,0-.24-.68-2.45-2.02-6.62-1.35-4.17-3.74-10.17-7.17-18.02l-11.04-26.85c-.98-.98-1.84-1.47-2.57-1.47-2.45-.24-6.62-.37-12.51-.37h-44.33c-6.25,0-11.47.13-15.63.37-.98,0-1.84.62-2.57,1.84l-12.14,27.96c-4.17,9.81-6.56,16.92-7.17,21.34s1.53,7.85,6.44,10.3c4.41,2.21,8.28,3.49,11.59,3.86,3.31.36,6.19.55,8.64.55.74.25,1.1,2.21,1.1,5.89,0,3.19-.25,5.76-.74,7.72-11.04-.74-19.07-1.35-24.1-1.84s-8.77-.79-11.22-.92c-2.45-.12-5.09-.06-7.91.19-2.82.25-7.3.55-13.43.92-6.13.36-15.58.92-28.32,1.65ZM1602.33,398.81c4.9,0,9.5-.06,13.79-.18,4.29-.12,8.4-.31,12.32-.55l1.1-1.84-26.49-65.85-28.69,65.85c0,.98.24,1.47.74,1.47,7.36.74,16.43,1.1,27.22,1.1Z"/>
    <path class="st1" d="M1756.46,500.7c-.98-.98-1.47-3.31-1.47-6.99s.49-5.52,1.47-5.52c1.96,0,4.53-.49,7.72-1.47,3.18-.98,6.25-2.21,9.2-3.68s4.53-2.82,4.78-4.05c1.71-6.86,2.57-16.19,2.57-27.96v-53.71c0-13.73-2.21-22.93-6.62-27.59-1.97-2.45-4.6-4.17-7.91-5.15-3.31-.98-6.19-1.65-8.64-2.02-2.45-.37-3.68-.79-3.68-1.29,0-7.11.61-10.67,1.84-10.67,2.21,0,6.25-.49,12.14-1.47,5.89-.98,12.45-2.21,19.68-3.68s14.1-2.94,20.6-4.41,11.46-2.7,14.9-3.68l4.05-1.1c1.22,0,2.45.8,3.68,2.39,1.22,1.6,1.84,2.88,1.84,3.86-1.23,10.79-2.21,19.25-2.94,25.38-.74,6.13-1.1,9.93-1.1,11.4v66.21c0,13.98.98,25.14,2.94,33.47.49.98,2.15,2.21,4.97,3.68,2.82,1.47,5.82,2.76,9.01,3.86,3.18,1.1,5.39,1.65,6.62,1.65.74,0,1.16,1.84,1.29,5.52.12,3.68-.06,6.01-.55,6.99-1.97-.25-6.07-.55-12.32-.92-6.25-.37-12.82-.79-19.68-1.29-6.87-.49-12.27-.74-16.19-.74s-9.32.25-16.19.74c-6.87.49-13.37.92-19.5,1.29-6.13.36-10.3.67-12.51.92ZM1802.81,299.85c-7.6,0-14.04-2.63-19.31-7.91-5.28-5.27-7.91-11.71-7.91-19.31s2.63-14.03,7.91-19.31c5.27-5.27,11.71-7.91,19.31-7.91s14.04,2.64,19.31,7.91c5.27,5.28,7.91,11.71,7.91,19.31s-2.64,14.04-7.91,19.31c-5.27,5.28-11.71,7.91-19.31,7.91Z"/>
  </g>
  <g>
    <path class="st1" d="M848.71,625.08h-7.5v-57.87h-20.44v-6.67h48.38v6.67h-20.44v57.87Z"/>
    <path class="st1" d="M923.88,625.08h-35.98v-64.54h35.98v6.67h-28.47v20.79h26.75v6.62h-26.75v23.75h28.47v6.71Z"/>
    <path class="st1" d="M974.85,566.32c-7.09,0-12.69,2.36-16.79,7.09-4.11,4.72-6.16,11.19-6.16,19.4s1.98,14.97,5.94,19.58,9.6,6.91,16.93,6.91c4.5,0,9.64-.81,15.41-2.43v6.58c-4.47,1.68-9.99,2.52-16.55,2.52-9.51,0-16.84-2.88-22-8.65-5.17-5.77-7.75-13.96-7.75-24.59,0-6.65,1.24-12.48,3.73-17.48s6.08-8.86,10.77-11.57c4.69-2.71,10.22-4.06,16.58-4.06,6.77,0,12.68,1.24,17.75,3.71l-3.18,6.44c-4.89-2.3-9.77-3.44-14.66-3.44Z"/>
    <path class="st1" d="M1062.29,625.08h-7.5v-30.37h-33.99v30.37h-7.5v-64.54h7.5v27.46h33.99v-27.46h7.5v64.54Z"/>
    <path class="st1" d="M1149.19,566.32c-7.09,0-12.69,2.36-16.79,7.09-4.11,4.72-6.16,11.19-6.16,19.4s1.98,14.97,5.94,19.58,9.6,6.91,16.93,6.91c4.5,0,9.64-.81,15.41-2.43v6.58c-4.47,1.68-9.99,2.52-16.55,2.52-9.51,0-16.84-2.88-22-8.65-5.17-5.77-7.75-13.96-7.75-24.59,0-6.65,1.24-12.48,3.73-17.48,2.49-5,6.08-8.86,10.77-11.57,4.69-2.71,10.22-4.06,16.58-4.06,6.77,0,12.68,1.24,17.75,3.71l-3.18,6.44c-4.89-2.3-9.77-3.44-14.66-3.44Z"/>
    <path class="st1" d="M1243.64,592.72c0,10.33-2.61,18.45-7.83,24.37-5.23,5.92-12.49,8.87-21.79,8.87s-16.84-2.9-22-8.72c-5.17-5.81-7.75-14.02-7.75-24.61s2.59-18.65,7.77-24.43,12.54-8.68,22.07-8.68,16.51,2.94,21.72,8.83,7.81,14.01,7.81,24.37ZM1192.22,592.72c0,8.74,1.86,15.37,5.58,19.89s9.13,6.77,16.22,6.77,12.55-2.25,16.2-6.75,5.47-11.14,5.47-19.91-1.82-15.26-5.45-19.75c-3.64-4.49-9.01-6.73-16.14-6.73s-12.59,2.26-16.31,6.78c-3.72,4.52-5.58,11.09-5.58,19.71Z"/>
    <path class="st1" d="M1295.63,625.08l-21.89-57.21h-.35c.41,4.53.62,9.92.62,16.16v41.05h-6.93v-64.54h11.3l20.44,53.24h.35l20.61-53.24h11.21v64.54h-7.5v-41.58c0-4.77.21-9.95.62-15.54h-.35l-22.07,57.12h-6.05Z"/>
    <path class="st1" d="M1386.29,625.08l-21.89-57.21h-.35c.41,4.53.62,9.92.62,16.16v41.05h-6.93v-64.54h11.3l20.44,53.24h.35l20.61-53.24h11.21v64.54h-7.5v-41.58c0-4.77.21-9.95.62-15.54h-.35l-22.07,57.12h-6.05Z"/>
    <path class="st1" d="M1497.12,560.54v41.76c0,7.36-2.22,13.14-6.67,17.35s-10.55,6.31-18.32,6.31-13.78-2.12-18.03-6.36c-4.26-4.24-6.38-10.06-6.38-17.48v-41.58h7.5v42.11c0,5.39,1.47,9.52,4.41,12.4s7.27,4.33,12.98,4.33,9.64-1.45,12.58-4.35,4.41-7.06,4.41-12.47v-42.02h7.5Z"/>
    <path class="st1" d="M1573.66,625.08h-8.56l-35.27-54.16h-.35c.47,6.36.71,12.18.71,17.48v36.68h-6.93v-64.54h8.48l35.18,53.94h.35c-.06-.79-.19-3.35-.4-7.66s-.28-7.4-.22-9.25v-37.04h7.02v64.54Z"/>
    <path class="st1" d="M1600.44,625.08v-64.54h7.5v64.54h-7.5Z"/>
    <path class="st1" d="M1654.55,625.08h-7.5v-57.87h-20.44v-6.67h48.38v6.67h-20.44v57.87Z"/>
    <path class="st1" d="M1710.16,592.81l17.22-32.27h8.12l-21.54,39.51v25.03h-7.59v-24.68l-21.5-39.86h8.21l17.08,32.27Z"/>
  </g>
</svg>